<svg
      className={classname}
      fill="none"
      height="132"
      viewBox="0 0 394 132"
      width="394"
      xmlns="http://www.w3.org/2000/svg"
    >
      <ellipse
        cx="63.9516"
        cy="115.751"
        fill="#3B5249"
        rx="62.3578"
        ry="14.5435"
      />
      <path
        d="M64.4903 99.4093C64.4903 111.733 44.789 122.32 29.825 122.32C14.8609 122.32 10.3008 111.733 10.3008 99.4093C10.3008 87.086 22.4315 77.0959 37.3956 77.0959C52.3596 77.0959 64.4903 87.086 64.4903 99.4093Z"
        fill="#7CCCAC"
      />
      <ellipse
        cx="36.8235"
        cy="72.1032"
        fill="#7CCCAC"
        rx="18.1296"
        ry="44.5658"
        transform="rotate(27.8036 36.8235 72.1032)"
      />
      <path
        d="M117.297 24.8913C122.281 36.8166 106.835 54.6262 82.7995 64.6703C58.7635 74.7143 35.2387 73.1893 30.2554 61.2641C25.2722 49.3388 41.9777 33.2662 64.7534 21.4851C88.7894 11.4411 112.314 12.9661 117.297 24.8913Z"
        fill="#7CCCAC"
      />
      <path
        d="M114.156 119.735C117.543 129.696 74.9086 127.704 50.603 127.704C21.6973 127.704 12.75 116.235 12.75 110.77C12.75 105.305 35.8212 105.321 60.7968 105.321C85.7725 105.321 108.668 103.593 114.156 119.735Z"
        fill="#7CCCAC"
      />
      <path
        d="M65.7451 125.114C71.5227 124.052 81.7159 119.951 80.0894 111.168C78.1432 100.659 89.3151 122.659 91.5044 123.311C91.7448 123.285 91.8035 123.286 91.6445 123.321C91.6031 123.33 91.5563 123.327 91.5044 123.311C89.034 123.584 67.3792 126.748 65.7451 125.114Z"
        fill="#3B5249"
      />
      <path
        d="M65.7451 125.114C71.5227 124.052 81.7159 119.951 80.0894 111.168C78.0972 100.41 89.8515 123.72 91.6445 123.321C93.4376 122.923 67.5382 126.907 65.7451 125.114Z"
        stroke="#3B5249"
        strokeLinecap="round"
        strokeLinejoin="round"
        strokeWidth="6"
      />
      <path
        d="M117.285 23.9026C128.044 38.2468 120.075 63.8592 106.328 80.6821C77.8385 115.547 63.8121 98.1417 51.5781 84.5798C39.3441 71.0179 44.3722 46.5414 62.8087 29.91C81.2452 13.2787 108.121 10.1559 117.285 23.9026Z"
        fill="#7CCCAC"
      />
      <path
        d="M90.3902 87.0572C95.566 92.761 91.9095 95.1639 82.6205 103.593C73.3315 112.022 61.9049 114.886 56.7291 109.182C51.5532 103.479 54.8876 92.0215 64.1766 83.5924C73.4656 75.1632 85.2144 81.3534 90.3902 87.0572Z"
        fill="#7CCCAC"
      />
      <path
        d="M98.1591 96.0226C117.484 118.535 119.078 122.32 105.531 122.32C90.7878 123.316 91.3027 121.125 85.8071 114.351C77.2404 103.792 68.6765 89.8302 72.7587 85.6415C76.8408 81.4528 89.2479 85.6415 98.1591 96.0226Z"
        fill="#7CCCAC"
      />
      <ellipse
        cx="73.0578"
        cy="110.964"
        fill="#7CCCAC"
        rx="4.58221"
        ry="9.16441"
      />
      <path
        d="M41.8381 37.853C29.2868 48.8105 24.5329 56.2031 19.0671 67.1346C13.6013 78.0661 10.8925 90.2213 10.3012 97.417C9.20415 110.767 15.0593 119.536 25.044 122.121C34.2674 124.509 66.1436 129.298 75.1088 119.536C84.074 109.774 75.1088 89.0542 60.7056 81.2797C48.7839 74.8447 37.8535 80.6867 33.6108 86.4643C29.7092 91.7773 30.4822 97.417 33.6108 101.999C36.7394 106.581 42.8342 108.379 49.6078 108.379"
        stroke="#3B5249"
        strokeLinecap="round"
        strokeLinejoin="round"
        strokeWidth={6}
      />
      <path
        d="M91.3857 15.535C95.5695 14.3396 111.583 14.1193 119.735 28.6886C129.098 45.4236 103 87.6596 95.5695 92.2372C102.402 98.4179 110.629 113.365 112.961 119.536"
        stroke="#3B5249"
        strokeLinecap="round"
        strokeLinejoin="round"
        strokeWidth="6"
      />
      <ellipse
        cx="76.6904"
        cy="23.2507"
        fill="white"
        rx="16.6501"
        ry="15.9996"
        stroke="#3B5249"
        strokeWidth="6"
        transform="rotate(-21.1712 76.6904 23.2507)"
      />
      <ellipse
        cx="79.093"
        cy="23.1102"
        fill="#3B5249"
        rx="6.17602"
        ry="5.57834"
      />
      <path
        d="M84.8525 53.4575C89.9202 55.2164 97.3514 55.6497 103.778 54.2617C110.204 52.8738 119.978 48.1131 121.454 39.8453"
        stroke="#3B5249"
        strokeLinecap="round"
        strokeLinejoin="round"
        strokeWidth="6"
      />
      <path
        d="M77.2998 101.406C79.2921 108.977 89.6211 120.314 92.6402 122.126C95.6593 123.937 111.766 125.114 112.961 119.536"
        stroke="#3B5249"
        strokeLinecap="round"
        strokeLinejoin="round"
        strokeWidth="6"
      />
      <path
        d="M29.6846 123.122C46.2204 126.509 108.777 128.501 112.762 120.333"
        stroke="#3B5249"
        strokeLinecap="round"
        strokeLinejoin="round"
        strokeWidth="6"
      />
      <path
        d="M189.964 77.94C189.964 82.356 189.324 86.26 188.044 89.652C186.828 93.044 184.844 95.764 182.092 97.812C179.34 99.796 175.788 101.012 171.436 101.46C167.084 101.908 161.772 101.428 155.5 100.02C155.5 97.396 155.5 94.74 155.5 92.052C155.5 89.364 155.5 86.708 155.5 84.084C161.644 85.812 166.124 86.228 168.94 85.332C171.756 84.372 173.164 81.908 173.164 77.94C173.164 70.9 173.164 63.796 173.164 56.628C173.164 49.396 173.164 42.26 173.164 35.22C175.98 35.22 178.796 35.22 181.612 35.22C184.428 35.22 187.212 35.22 189.964 35.22C189.964 42.26 189.964 49.396 189.964 56.628C189.964 63.796 189.964 70.9 189.964 77.94ZM208.933 45.204C207.077 45.204 205.381 44.756 203.845 43.86C202.373 42.964 201.189 41.78 200.293 40.308C199.397 38.836 198.949 37.204 198.949 35.412C198.949 33.62 199.397 32.02 200.293 30.612C201.189 29.14 202.373 27.956 203.845 27.06C205.381 26.164 207.077 25.716 208.933 25.716C210.725 25.716 212.357 26.164 213.829 27.06C215.365 27.956 216.581 29.14 217.477 30.612C218.373 32.02 218.821 33.62 218.821 35.412C218.821 37.204 218.373 38.836 217.477 40.308C216.581 41.78 215.365 42.964 213.829 43.86C212.357 44.756 210.725 45.204 208.933 45.204ZM200.965 100.5C200.965 92.308 200.965 84.052 200.965 75.732C200.965 67.348 200.965 59.06 200.965 50.868C203.589 50.868 206.245 50.868 208.933 50.868C211.621 50.868 214.245 50.868 216.805 50.868C216.805 59.06 216.805 67.348 216.805 75.732C216.805 84.052 216.805 92.308 216.805 100.5C214.245 100.5 211.621 100.5 208.933 100.5C206.245 100.5 203.589 100.5 200.965 100.5ZM243.7 115.86C241.14 115.86 238.516 115.86 235.828 115.86C233.14 115.86 230.484 115.86 227.86 115.86C227.86 105.172 227.86 94.356 227.86 83.412C227.86 72.404 227.86 61.556 227.86 50.868C230.484 50.868 233.14 50.868 235.828 50.868C238.516 50.868 241.14 50.868 243.7 50.868C243.7 51.316 243.7 51.764 243.7 52.212C243.7 52.66 243.7 53.14 243.7 53.652C245.3 52.372 247.124 51.38 249.172 50.676C251.22 49.908 253.396 49.524 255.7 49.524C258.9 49.524 261.94 50.164 264.82 51.444C267.7 52.66 270.228 54.42 272.404 56.724C274.644 59.028 276.372 61.78 277.588 64.98C278.868 68.18 279.508 71.732 279.508 75.636C279.508 79.476 278.868 82.996 277.588 86.196C276.372 89.396 274.644 92.18 272.404 94.548C270.228 96.852 267.7 98.644 264.82 99.924C261.94 101.204 258.868 101.844 255.604 101.844C253.3 101.844 251.124 101.46 249.076 100.692C247.092 99.988 245.3 98.964 243.7 97.62C243.7 100.628 243.7 103.668 243.7 106.74C243.7 109.812 243.7 112.852 243.7 115.86ZM253.492 87.828C256.628 87.828 259.092 86.74 260.884 84.564C262.74 82.324 263.668 79.348 263.668 75.636C263.668 71.924 262.74 68.98 260.884 66.804C259.092 64.628 256.628 63.54 253.492 63.54C250.42 63.54 247.956 64.66 246.1 66.9C244.244 69.076 243.316 71.988 243.316 75.636C243.316 79.284 244.244 82.228 246.1 84.468C247.956 86.708 250.42 87.828 253.492 87.828ZM303.231 115.86C300.671 115.86 298.047 115.86 295.359 115.86C292.671 115.86 290.015 115.86 287.391 115.86C287.391 105.172 287.391 94.356 287.391 83.412C287.391 72.404 287.391 61.556 287.391 50.868C290.015 50.868 292.671 50.868 295.359 50.868C298.047 50.868 300.671 50.868 303.231 50.868C303.231 51.316 303.231 51.764 303.231 52.212C303.231 52.66 303.231 53.14 303.231 53.652C304.831 52.372 306.655 51.38 308.703 50.676C310.751 49.908 312.927 49.524 315.231 49.524C318.431 49.524 321.471 50.164 324.351 51.444C327.231 52.66 329.759 54.42 331.935 56.724C334.175 59.028 335.903 61.78 337.119 64.98C338.399 68.18 339.039 71.732 339.039 75.636C339.039 79.476 338.399 82.996 337.119 86.196C335.903 89.396 334.175 92.18 331.935 94.548C329.759 96.852 327.231 98.644 324.351 99.924C321.471 101.204 318.399 101.844 315.135 101.844C312.831 101.844 310.655 101.46 308.607 100.692C306.623 99.988 304.831 98.964 303.231 97.62C303.231 100.628 303.231 103.668 303.231 106.74C303.231 109.812 303.231 112.852 303.231 115.86ZM313.023 87.828C316.159 87.828 318.623 86.74 320.415 84.564C322.271 82.324 323.199 79.348 323.199 75.636C323.199 71.924 322.271 68.98 320.415 66.804C318.623 64.628 316.159 63.54 313.023 63.54C309.951 63.54 307.487 64.66 305.631 66.9C303.775 69.076 302.847 71.988 302.847 75.636C302.847 79.284 303.775 82.228 305.631 84.468C307.487 86.708 309.951 87.828 313.023 87.828ZM350.593 115.86C351.873 112.468 353.185 109.044 354.529 105.588C355.937 102.196 357.281 98.836 358.561 95.508C355.553 88.148 352.481 80.724 349.345 73.236C346.273 65.684 343.233 58.228 340.225 50.868C343.041 50.868 345.857 50.868 348.673 50.868C351.489 50.868 354.273 50.868 357.025 50.868C358.689 54.964 360.353 59.124 362.017 63.348C363.745 67.572 365.441 71.764 367.105 75.924C368.641 71.764 370.209 67.572 371.809 63.348C373.409 59.124 374.977 54.964 376.513 50.868C379.265 50.868 382.017 50.868 384.769 50.868C387.521 50.868 390.273 50.868 393.025 50.868C388.737 61.556 384.417 72.404 380.065 83.412C375.777 94.356 371.489 105.172 367.201 115.86C364.449 115.86 361.665 115.86 358.849 115.86C356.097 115.86 353.345 115.86 350.593 115.86Z"
        fill="#3B5249"
      />
    </svg>